PathFileType	4	(X/Y/Z)	./resultDataOpenSim/trcMotMarkerGrf/sub06/qtm-15-05.trc
DataRate	CameraRate	NumFrames	NumMarkers	Units	OrigDataRate	OrigDataStartFrame	OrigNumFrames
250.000000	250.000000	12	24	m	250.000000	1	513
Frame#	Time	L.Toe.Tip			R.Toe.Tip			L.Ankle.Lat			R.Ankle.Lat			L.Ankle.Med			R.Ankle.Med			L.Heel			R.Heel			L.Knee.Lat			R.Knee.Lat			L.Knee.Med			R.Knee.Med			L.Thigh.Upper			R.Thigh.Upper			L.ASIS			R.ASIS			V.Sacral			L.Acromium			R.Acromium			C7			L.Elbow			R.Elbow			L.Wrist.Lat			R.Wrist.Lat
		X1	Y1	Z1	X2	Y2	Z2	X3	Y3	Z3	X4	Y4	Z4	X5	Y5	Z5	X6	Y6	Z6	X7	Y7	Z7	X8	Y8	Z8	X9	Y9	Z9	X10	Y10	Z10	X11	Y11	Z11	X12	Y12	Z12	X13	Y13	Z13	X14	Y14	Z14	X15	Y15	Z15	X16	Y16	Z16	X17	Y17	Z17	X18	Y18	Z18	X19	Y19	Z19	X20	Y20	Z20	X21	Y21	Z21	X22	Y22	Z22	X23	Y23	Z23	X24	Y24	Z24

1	0	-1.505935	0.031217578	-0.12554801	-1.2420157	0.062914036	0.071665219	-1.6287898	0.068478101	-0.14204	-1.3708704	0.10739547	0.078328879	-1.6205334	0.080217535	-0.057482517	-1.3351892	0.12899916	-0.002333361	NaN	NaN	NaN	-1.4165432	0.095058167	0.0078564403	-1.5007519	0.41881939	-0.15454752	-1.2582896	0.47914004	0.11704933	-1.518935	0.42360732	-0.035457431	-1.2678516	0.46636401	-0.0084505606	-1.4492075	0.80751832	-0.22021625	-1.4459765	0.80428538	0.13228328	-1.3727877	0.84817086	-0.17392398	-1.3626096	0.85443032	0.069374941	-1.5445308	0.93594491	-0.04204183	-1.3746244	1.331327	-0.22691589	-1.3812383	1.319308	0.13499777	-1.4532905	1.3696658	-0.046610608	-1.4190804	1.0132062	-0.297733	-1.5028577	1.0227659	0.20471469	-1.2429297	0.83635641	-0.27432347	-1.3638052	0.81850374	0.21001197
2	0.004	-1.5059502	0.03119844	-0.12555539	-1.2236012	0.062877425	0.072203969	-1.6288676	0.068647815	-0.14201855	-1.3538826	0.10411596	0.078679575	-1.620294	0.080583711	-0.057542816	-1.3183377	0.12664911	-0.00192688	NaN	NaN	NaN	-1.3986589	0.090707141	0.0081504033	-1.4991559	0.41847978	-0.15472641	-1.2505287	0.4793585	0.11672307	-1.5174553	0.4233691	-0.035582301	-1.260495	0.46602592	-0.0087436372	-1.4443026	0.80663083	-0.22025328	-1.4402889	0.80335881	0.13229173	-1.3673772	0.84701717	-0.17406094	-1.357299	0.8532588	0.069266674	-1.5388442	0.93476795	-0.041406938	-1.3692275	1.3303435	-0.22686609	-1.3763619	1.3179434	0.1351899	-1.4479343	1.3686506	-0.046597283	-1.4108728	1.0116297	-0.29756231	-1.4998736	1.0220242	0.20433531	-1.2329157	0.83716678	-0.27331278	-1.3636727	0.81614027	0.21088672
3	0.008	-1.5059657	0.031178251	-0.12556082	-1.2052312	0.062923214	0.072772466	-1.6289905	0.068814052	-0.14200069	-1.3364192	0.1011149	0.079166097	-1.6200875	0.080955115	-0.05759152	-1.3014552	0.12437456	-0.0014730817	NaN	NaN	NaN	-1.380723	0.086493971	0.0084616715	-1.4975025	0.41812158	-0.15491831	-1.242801	0.47951444	0.11640665	-1.5156812	0.42312415	-0.035754126	-1.2531626	0.46559548	-0.0090471622	-1.4396248	0.80563637	-0.22052643	-1.4345822	0.80238296	0.13231596	-1.3621644	0.84579891	-0.17428442	-1.3518285	0.85210525	0.069167639	-1.5334972	0.93371992	-0.040631247	-1.3638208	1.3293108	-0.22681004	-1.3714646	1.3165544	0.13536673	-1.4425721	1.367603	-0.046582553	-1.4026386	1.010073	-0.29749859	-1.4967181	1.0212604	0.20378698	-1.2229245	0.83795938	-0.27229691	-1.3635198	0.813789	0.21178405
4	0.012	-1.5059833	0.031157431	-0.12556286	-1.1868859	0.063109609	0.073417615	-1.6290845	0.069009252	-0.14198472	-1.3184298	0.098466716	0.079816517	-1.6199278	0.081312239	-0.057623985	-1.2845092	0.12223038	-0.00095318627	NaN	NaN	NaN	-1.3626945	0.082485011	0.0088205982	-1.4957718	0.41773568	-0.15511284	-1.2352018	0.47955227	0.11607415	-1.5135262	0.42287369	-0.03598126	-1.2458388	0.4650189	-0.0093823979	-1.4351157	0.804497	-0.22100132	-1.4288053	0.80134859	0.1323485	-1.357142	0.84451383	-0.17459432	-1.3461941	0.85092474	0.069095749	-1.5286613	0.93288042	-0.039709791	-1.3583855	1.3282043	-0.2267456	-1.3665306	1.3151238	0.13552795	-1.4371916	1.3665076	-0.046557713	-1.3943944	1.0085296	-0.29757599	-1.493186	1.0204382	0.20276648	-1.2129609	0.83872285	-0.27127815	-1.3633431	0.81146087	0.21270294
5	0.016	-1.5060046	0.03113844	-0.12556399	-1.1685359	0.06347067	0.074179375	-1.6290149	0.069278511	-0.14196378	-1.3002898	0.096052911	0.08055493	-1.6198	0.081628482	-0.057645182	-1.267511	0.12024648	-0.00037762136	NaN	NaN	NaN	-1.3445942	0.078678083	0.0092603002	-1.4939777	0.41732441	-0.15529599	-1.2278532	0.47943279	0.11568716	-1.5111595	0.42261248	-0.03622653	-1.2385059	0.46428862	-0.0097614222	-1.4304985	0.80326902	-0.22140485	-1.4229347	0.80026003	0.13236998	-1.3521486	0.84320112	-0.17491467	-1.340479	0.84966227	0.069056917	-1.5241449	0.9321556	-0.038914322	-1.3529172	1.3270248	-0.22668146	-1.3615598	1.3136454	0.13568444	-1.4317954	1.3653637	-0.04653012	-1.386216	1.0069747	-0.29777479	-1.489135	1.0195177	0.20103698	-1.2030365	0.83945003	-0.27026678	-1.3631503	0.80916724	0.21362637
6	0.02	-1.5060265	0.031123597	-0.1255722	-1.1501543	0.064022994	0.075067046	-1.6287623	0.069617236	-0.14193563	-1.2823528	0.093731699	0.081301203	-1.619679	0.081900119	-0.057665734	-1.2504755	0.11842459	0.00024223308	NaN	NaN	NaN	-1.3264486	0.075049257	0.0097852419	-1.4921292	0.41689422	-0.15547343	-1.2207993	0.4791343	0.11522925	-1.5087876	0.42232559	-0.036446616	-1.2311633	0.46342392	-0.010185365	-1.4256185	0.80204094	-0.2215363	-1.4170092	0.79909584	0.13237657	-1.3470252	0.84188415	-0.17516842	-1.3347146	0.84830924	0.06903618	-1.5194757	0.93131797	-0.038576462	-1.3474156	1.3257811	-0.2266258	-1.3565548	1.3121165	0.13584474	-1.4263909	1.3641742	-0.04652545	-1.3781367	1.0053854	-0.29803405	-1.4847443	1.0185101	0.19886021	-1.1931577	0.84013834	-0.26927113	-1.3629392	0.80691391	0.21453866
7	0.024	-1.5060415	0.031111543	-0.12559398	-1.1317664	0.064765299	0.076058774	-1.6284286	0.06997343	-0.14192263	-1.2647156	0.091460105	0.082033135	-1.6195674	0.08214339	-0.057689676	-1.2334188	0.11675425	0.00091271504	NaN	NaN	NaN	-1.3082758	0.071594251	0.010374117	-1.4902166	0.41644591	-0.15565844	-1.213968	0.47866274	0.1147174	-1.5064857	0.42199537	-0.036627675	-1.2238234	0.4624501	-0.010660883	-1.4206059	0.80084935	-0.22145089	-1.4110734	0.79783219	0.13237769	-1.341711	0.84056289	-0.17532618	-1.3288756	0.84688573	0.069014028	-1.5143362	0.93023551	-0.03868826	-1.3418819	1.3244827	-0.2265747	-1.3515179	1.3105399	0.136012	-1.4209837	1.3629403	-0.04656308	-1.3701159	1.0037596	-0.29827905	-1.4804794	1.0174948	0.19691172	-1.1833291	0.84079337	-0.2682945	-1.3626871	0.80470135	0.2154334
8	0.028	-1.5060457	0.031097859	-0.12562672	-1.113451	0.065691189	0.077117197	-1.6280659	0.070315227	-0.14198146	-1.2472936	0.089291472	0.082773615	-1.6195005	0.082377633	-0.057707446	-1.2163767	0.11523702	0.0016608408	NaN	NaN	NaN	-1.2900959	0.068325589	0.011024451	-1.4882263	0.41597347	-0.15585334	-1.207202	0.47806018	0.11419484	-1.5041958	0.42161426	-0.036789388	-1.2164983	0.4613835	-0.011191594	-1.4156635	0.79966821	-0.22132253	-1.4051072	0.79647077	0.13237455	-1.336256	0.83923308	-0.17542116	-1.3229439	0.84540294	0.068977876	-1.5087724	0.92894046	-0.038963549	-1.3363263	1.3231389	-0.22652357	-1.3464461	1.3089297	0.13619038	-1.4155727	1.3616616	-0.046629689	-1.3621049	1.0021144	-0.29848011	-1.4766077	1.0165236	0.19559865	-1.1735531	0.84142741	-0.2673305	-1.3623652	0.80252466	0.21631476
9	0.032	-1.5060416	0.03107902	-0.1256615	-1.0952728	0.066806025	0.078213296	-1.6276308	0.07065566	-0.14217022	-1.2299425	0.087312632	0.083560843	-1.6194947	0.082625413	-0.057708749	-1.1994216	0.1138982	0.0025315346	NaN	NaN	NaN	-1.2719358	0.065247876	0.011768773	-1.4861535	0.41547346	-0.15605122	-1.2003609	0.47737468	0.11370449	-1.5017507	0.42120463	-0.036971563	-1.2092027	0.46023613	-0.011764895	-1.4108547	0.79847051	-0.22126712	-1.399064	0.79503069	0.13236022	-1.3308045	0.83788619	-0.1755501	-1.3169555	0.84385979	0.068923271	-1.5029986	0.92751242	-0.03918754	-1.330765	1.3217596	-0.22647494	-1.3413342	1.3073055	0.13638359	-1.4101463	1.3603473	-0.046673613	-1.3540835	1.0004674	-0.29865027	-1.4729837	1.0155607	0.19477825	-1.1638231	0.84204842	-0.26636019	-1.3619614	0.8003777	0.21718638
10	0.036	-1.5060342	0.031054203	-0.12569098	-1.0772497	0.068119648	0.079339943	-1.6271347	0.071019112	-0.14246032	-1.2125501	0.085581629	0.084423714	-1.6195166	0.082917078	-0.057695505	-1.1826406	0.1127757	0.0035550442	NaN	NaN	NaN	-1.2538241	0.062347235	0.012638246	-1.484	0.41495132	-0.15624511	-1.1934276	0.47661582	0.11325546	-1.4990269	0.42079743	-0.03719374	-1.2019525	0.4590267	-0.012367608	-1.4061258	0.79726563	-0.22131595	-1.3929494	0.79353226	0.13233408	-1.3255162	0.83650349	-0.17581838	-1.31096	0.84225883	0.068851468	-1.4971857	0.9260167	-0.039312064	-1.3252013	1.3203556	-0.22642564	-1.3361879	1.30568	0.13658729	-1.4046934	1.3590142	-0.046656445	-1.3460512	0.9988249	-0.2988002	-1.469391	1.0145771	0.19416229	-1.1541253	0.84265268	-0.26536706	-1.3614771	0.79826194	0.21804704
11	0.04	-1.5060277	0.031024638	-0.12571195	-1.059387	0.069631661	0.080501498	-1.6267308	0.071411473	-0.1426951	-1.1950893	0.084117294	0.08537046	-1.619512	0.083279516	-0.057677266	-1.166065	0.11188443	0.0046925515	NaN	NaN	NaN	-1.2357843	0.05962441	0.013612428	-1.4817654	0.41442056	-0.15643069	-1.1865006	0.47575658	0.11281692	-1.4961195	0.42038345	-0.037423737	-1.1947598	0.45777285	-0.012995738	-1.4014123	0.79606774	-0.22143994	-1.3868422	0.79197847	0.13229782	-1.3204244	0.83507357	-0.17623765	-1.3049563	0.84061233	0.068764633	-1.4914069	0.92450634	-0.039352505	-1.3196235	1.3189356	-0.22636147	-1.3310223	1.3040519	0.13679517	-1.3992198	1.3576687	-0.046608125	-1.3380143	0.99718797	-0.29892038	-1.4658067	1.0136165	0.1936444	-1.1444566	0.84322663	-0.2643514	-1.360915	0.79618759	0.21889681
12	0.044	-1.5060218	0.030992821	-0.12572697	-1.0417144	0.071345099	0.081701344	-1.6265513	0.071823681	-0.14273247	-1.1775895	0.082930054	0.086403463	-1.6194408	0.083717111	-0.057663844	-1.1496506	0.11119721	0.0058427769	NaN	NaN	NaN	-1.2178354	0.057128159	0.014617806	-1.4794388	0.41389598	-0.1566054	-1.1796977	0.47476715	0.11234383	-1.4932162	0.41991654	-0.037612524	-1.1876373	0.45647991	-0.013642018	-1.3966857	0.79486792	-0.22156035	-1.3808769	0.79034396	0.13223033	-1.3153982	0.83361038	-0.17670974	-1.2989131	0.83893366	0.068663808	-1.4856667	0.92301029	-0.039318853	-1.3140241	1.3175009	-0.22627104	-1.3258382	1.3024104	0.13700966	-1.3937425	1.3563007	-0.046591494	-1.3299807	0.99555423	-0.29899195	-1.462233	1.0127047	0.19319858	-1.1348293	0.84375324	-0.26332201	-1.3602805	0.79416507	0.21973629
